<?xml version="1.0" encoding="UTF-8" standalone="no"?>
<!-- Created with Inkscape (http://www.inkscape.org/) -->

<svg
   version="1.1"
   id="svg1"
   width="448"
   height="136"
   viewBox="0 0 448 136"
   sodipodi:docname="KOST Logo.eps"
   xmlns:inkscape="http://www.inkscape.org/namespaces/inkscape"
   xmlns:sodipodi="http://sodipodi.sourceforge.net/DTD/sodipodi-0.dtd"
   xmlns="http://www.w3.org/2000/svg"
   xmlns:svg="http://www.w3.org/2000/svg">
  <defs
     id="defs1" />
  <sodipodi:namedview
     id="namedview1"
     pagecolor="#ffffff"
     bordercolor="#000000"
     borderopacity="0.25"
     inkscape:showpageshadow="2"
     inkscape:pageopacity="0.0"
     inkscape:pagecheckerboard="0"
     inkscape:deskcolor="#d1d1d1">
    <inkscape:page
       x="0"
       y="0"
       inkscape:label="1"
       id="page1"
       width="448"
       height="136"
       margin="0"
       bleed="0" />
  </sodipodi:namedview>
  <g
     id="g1"
     inkscape:groupmode="layer"
     inkscape:label="1">
    <path
       id="path1"
       d="m 1155.73,908.793 h 75.82 V 740.668 l 105.03,168.125 h 91.22 L 1310.06,738.016 1441.07,540.18 h -97.61 L 1231.55,732.707 V 540.18 h -75.82 v 368.613"
       style="fill:#ed1c24;fill-opacity:1;fill-rule:nonzero;stroke:none"
       transform="matrix(0.13333333,0,0,-0.13333333,0,136)" />
    <path
       id="path2"
       d="m 1596.5,913.559 c 98.1,0 158.56,-71.598 158.56,-187.215 0,-83.274 -29.17,-145.317 -82.19,-175.028 -22.3,-12.195 -42.96,-16.961 -73.74,-16.961 -55.67,0 -91.75,15.364 -119.85,51.961 -28.12,36.082 -42.42,82.735 -42.42,136.832 0,79.559 30.75,143.219 83.25,172.372 21.75,11.675 48.81,18.039 76.39,18.039 z m -1.08,-57.266 c -24.9,0 -47.19,-12.734 -57.27,-32.371 -12.73,-23.867 -18.56,-56.211 -18.56,-100.774 0,-63.636 11.14,-102.886 32.89,-119.328 11.65,-8.484 26.5,-12.734 44.02,-12.734 51.45,0 73.19,39.25 73.19,133.141 0,37.656 -3.19,64.695 -9.56,85.386 -5.84,18.559 -25.46,46.68 -64.71,46.68"
       style="fill:#ed1c24;fill-opacity:1;fill-rule:nonzero;stroke:none"
       transform="matrix(0.13333333,0,0,-0.13333333,0,136)" />
    <path
       id="path3"
       d="M 2049.39,882.789 2014.4,829.77 c -33.41,20.156 -58.35,28.097 -85.93,28.097 -30.23,0 -51.44,-17.504 -51.44,-42.426 0,-19.097 10.07,-28.636 40.82,-37.117 l 44.56,-12.211 c 60.47,-16.445 93.35,-55.156 93.35,-109.773 0,-74.789 -60.46,-124.121 -152.22,-124.121 -41.9,0 -88.58,12.215 -125.69,33.426 l 27.58,57.808 c 34.48,-18.039 64.17,-29.711 101.28,-29.711 42.43,0 64.72,17.496 64.72,50.387 0,23.863 -15.38,39.25 -48.27,47.726 l -40.83,11.137 c -36.6,10.078 -59.4,24.41 -72.67,46.676 -10.06,16.445 -15.37,35.543 -15.37,56.234 0,67.348 54.1,114.024 132.07,114.024 45.07,0 90.67,-13.785 123.03,-37.137"
       style="fill:#ed1c24;fill-opacity:1;fill-rule:nonzero;stroke:none"
       transform="matrix(0.13333333,0,0,-0.13333333,0,136)" />
    <path
       id="path4"
       d="m 2079.07,908.793 h 265.7 L 2332.6,847.27 h -88.04 V 540.18 h -75.31 v 307.09 h -90.18 v 61.523"
       style="fill:#ed1c24;fill-opacity:1;fill-rule:nonzero;stroke:none"
       transform="matrix(0.13333333,0,0,-0.13333333,0,136)" />
    <path
       id="path5"
       d="m 1248.47,413.234 -9.53,-16.941 c -17.55,12.344 -28.73,16.66 -44.41,16.66 -22.83,0 -36.4,-12.344 -36.4,-32.457 0,-15.793 8.76,-24.988 30.29,-32.172 l 21,-7.187 c 16.2,-5.457 24.98,-10.637 32.15,-19.828 7.47,-9.196 11.97,-22.403 11.97,-34.746 0,-18.383 -9.32,-35.625 -25.22,-47.407 -12,-8.328 -24.19,-12.066 -40.94,-12.066 -21.79,0 -40.39,5.742 -58.5,17.805 l 9.58,18.386 c 15.15,-11.761 30.58,-16.941 48.92,-16.941 13.79,0 21.24,2.289 28.94,8.613 8.78,7.184 13.06,16.656 13.06,28.16 0,17.52 -10.66,29.582 -32.7,36.77 l -18.36,6.019 c -16.46,5.461 -25.25,9.496 -32.41,17.547 -7.45,8.606 -11.44,19.528 -11.44,32.149 0,33.621 23.66,56.601 59.02,56.601 19.64,0 37.72,-6.32 54.98,-18.965"
       style="fill:#7b7979;fill-opacity:1;fill-rule:nonzero;stroke:none"
       transform="matrix(0.13333333,0,0,-0.13333333,0,136)" />
    <path
       id="path6"
       d="m 1288.35,381.059 h 21.28 V 230.828 h -21.28 v 150.231"
       style="fill:#7b7979;fill-opacity:1;fill-rule:nonzero;stroke:none"
       transform="matrix(0.13333333,0,0,-0.13333333,0,136)" />
    <path
       id="path7"
       d="m 1454.73,371.305 -10.9,-15.516 c -8.78,6.043 -17.54,8.914 -27.9,8.914 -16.77,0 -31.1,-9.195 -38.29,-25.293 -3.99,-8.91 -5.84,-19.808 -5.84,-35.625 0,-20.672 3.47,-31.312 12.49,-41.926 8.53,-10.058 19.66,-14.957 32.69,-14.957 9.56,0 19.16,2.891 26.85,7.77 0.54,0.281 1.57,0.863 2.93,1.723 l 10.62,-14.93 c -10.12,-8.328 -26.05,-12.949 -43.05,-12.949 -38.82,0 -66.18,31.617 -66.18,76.132 0,44.817 29.21,78.719 67.5,78.719 14.35,0 29.24,-4.316 39.08,-12.062"
       style="fill:#7b7979;fill-opacity:1;fill-rule:nonzero;stroke:none"
       transform="matrix(0.13333333,0,0,-0.13333333,0,136)" />
    <path
       id="path8"
       d="m 1486.34,380.777 h 21 v -60.894 h 61.9 v 60.894 h 21.28 V 230.828 h -21.28 v 70.086 h -61.9 v -70.086 h -21 v 149.949"
       style="fill:#7b7979;fill-opacity:1;fill-rule:nonzero;stroke:none"
       transform="matrix(0.13333333,0,0,-0.13333333,0,136)" />
    <path
       id="path9"
       d="m 1637.82,380.215 h 86.36 l -2.91,-19.25 h -62.19 v -42.531 h 52.09 v -19.246 h -51.81 v -48.25 h 67.23 v -20.11 h -88.77 v 149.387"
       style="fill:#7b7979;fill-opacity:1;fill-rule:nonzero;stroke:none"
       transform="matrix(0.13333333,0,0,-0.13333333,0,136)" />
    <path
       id="path10"
       d="m 1762.46,380.777 h 37.23 c 22.85,0 31.89,-2.289 39.87,-7.746 10.06,-6.906 16.99,-19.551 16.99,-33.898 0,-26.438 -15.41,-41.953 -42,-42.235 3.74,-2.304 5.31,-3.73 7.43,-6.601 4.29,-5.758 13.06,-17.242 20.75,-28.16 8.25,-11.782 22.08,-31.309 22.08,-31.309 h -26.35 c -3.97,8.61 -5.82,12.063 -12.49,22.399 -10.36,16.961 -18.84,28.16 -26.56,35.625 -5.31,5.179 -9.3,6.906 -15.69,7.468 v -65.492 h -21.26 z m 21.26,-18.945 v -49.414 h 14.35 c 15.15,0 22.87,1.727 28.72,6.602 4.79,4.011 7.7,10.617 7.7,19.246 0,10.058 -5.59,17.523 -14.63,20.976 -4.77,1.426 -11.13,2.59 -19.38,2.59 h -16.76"
       style="fill:#7b7979;fill-opacity:1;fill-rule:nonzero;stroke:none"
       transform="matrix(0.13333333,0,0,-0.13333333,0,136)" />
    <path
       id="path11"
       d="m 1899.88,380.777 h 21 v -60.894 h 61.9 v 60.894 h 21.28 V 230.828 h -21.28 v 70.086 h -61.9 v -70.086 h -21 v 149.949"
       style="fill:#7b7979;fill-opacity:1;fill-rule:nonzero;stroke:none"
       transform="matrix(0.13333333,0,0,-0.13333333,0,136)" />
    <path
       id="path12"
       d="m 2051.34,380.215 h 86.36 l -2.91,-19.25 h -62.18 v -42.531 h 52.08 v -19.246 h -51.86 v -48.25 h 67.26 v -20.11 h -88.75 v 149.387"
       style="fill:#7b7979;fill-opacity:1;fill-rule:nonzero;stroke:none"
       transform="matrix(0.13333333,0,0,-0.13333333,0,136)" />
    <path
       id="path13"
       d="m 2177.06,381.059 h 21.23 V 230.828 h -21.23 v 150.231"
       style="fill:#7b7979;fill-opacity:1;fill-rule:nonzero;stroke:none"
       transform="matrix(0.13333333,0,0,-0.13333333,0,136)" />
    <path
       id="path14"
       d="m 2230.98,380.777 h 106.04 l -2.37,-19.25 h -41.74 V 230.828 h -20.73 v 130.699 h -41.2 v 19.25"
       style="fill:#7b7979;fill-opacity:1;fill-rule:nonzero;stroke:none"
       transform="matrix(0.13333333,0,0,-0.13333333,0,136)" />
    <path
       id="path15"
       d="m 2460.07,369.863 -9.54,-16.66 c -12.26,8.047 -24.99,12.36 -38,12.36 -17.83,0 -29.5,-8.352 -29.5,-21.555 0,-7.188 4.23,-13.207 12.73,-16.938 3.45,-1.73 4.77,-2.59 11.69,-4.316 l 18.91,-5.461 c 10.62,-2.867 21.5,-8.613 27.88,-15.234 6.13,-6.606 9.82,-16.942 9.82,-26.996 0,-15.516 -8.48,-30.45 -22.6,-38.774 -9.53,-5.742 -21.51,-8.613 -35.34,-8.613 -18.06,0 -36.1,4.875 -51.29,13.789 l 8.8,18.082 c 14.61,-8.609 28.42,-12.645 43.82,-12.645 9.85,0 16.51,1.446 22.32,5.762 6.93,4.598 10.92,10.918 10.92,18.664 0,11.785 -7.71,19.531 -26.85,24.711 l -20.45,5.738 c -20.22,5.461 -33.23,20.696 -33.23,38.778 0,25.851 21.27,43.957 51.29,43.957 17.8,0 36.68,-5.461 48.62,-14.649"
       style="fill:#7b7979;fill-opacity:1;fill-rule:nonzero;stroke:none"
       transform="matrix(0.13333333,0,0,-0.13333333,0,136)" />
    <path
       id="path16"
       d="m 2487.45,380.777 h 106.04 l -2.4,-19.25 h -41.71 V 230.828 h -20.74 v 130.699 h -41.19 v 19.25"
       style="fill:#7b7979;fill-opacity:1;fill-rule:nonzero;stroke:none"
       transform="matrix(0.13333333,0,0,-0.13333333,0,136)" />
    <path
       id="path17"
       d="m 2624.56,380.215 h 86.38 l -2.91,-19.25 h -62.19 v -42.531 h 52.09 v -19.246 h -51.83 v -48.25 h 67.24 v -20.11 h -88.78 v 149.387"
       style="fill:#7b7979;fill-opacity:1;fill-rule:nonzero;stroke:none"
       transform="matrix(0.13333333,0,0,-0.13333333,0,136)" />
    <path
       id="path18"
       d="m 2846.76,371.305 -10.87,-15.516 c -8.79,6.043 -17.55,8.914 -27.91,8.914 -16.74,0 -31.12,-9.195 -38.32,-25.293 -3.95,-8.91 -5.8,-19.808 -5.8,-35.625 0,-20.672 3.45,-31.312 12.49,-41.926 8.53,-10.058 19.63,-14.957 32.69,-14.957 9.54,0 19.12,2.891 26.85,7.77 0.51,0.281 1.57,0.863 2.91,1.723 l 10.61,-14.93 c -10.09,-8.328 -26.02,-12.949 -43.05,-12.949 -38.79,0 -66.18,31.617 -66.18,76.132 0,44.817 29.27,78.719 67.52,78.719 14.35,0 29.22,-4.316 39.06,-12.062"
       style="fill:#7b7979;fill-opacity:1;fill-rule:nonzero;stroke:none"
       transform="matrix(0.13333333,0,0,-0.13333333,0,136)" />
    <path
       id="path19"
       d="m 2878.39,380.777 h 20.96 v -60.894 h 61.93 v 60.894 h 21.3 V 230.828 h -21.3 v 70.086 h -61.93 v -70.086 h -20.96 v 149.949"
       style="fill:#7b7979;fill-opacity:1;fill-rule:nonzero;stroke:none"
       transform="matrix(0.13333333,0,0,-0.13333333,0,136)" />
    <path
       id="path20"
       d="m 3028.54,380.777 h 24.5 l 45.14,-81.589 c 9.02,-16.356 16.98,-33.899 17.78,-35.047 0,0 -2.09,21.257 -2.37,41.089 l -0.82,75.547 h 20.75 V 230.828 h -22.07 l -44.63,79.578 c -8.5,15.496 -19.4,39.059 -19.4,39.059 0.52,-6.016 1.34,-19.828 1.58,-41.645 l 1.34,-76.992 h -21.8 v 149.949"
       style="fill:#7b7979;fill-opacity:1;fill-rule:nonzero;stroke:none"
       transform="matrix(0.13333333,0,0,-0.13333333,0,136)" />
    <path
       id="path21"
       d="m 3180.57,381.059 h 21.25 V 230.828 h -21.25 v 150.231"
       style="fill:#7b7979;fill-opacity:1;fill-rule:nonzero;stroke:none"
       transform="matrix(0.13333333,0,0,-0.13333333,0,136)" />
    <path
       id="path22"
       d="m 3248.32,380.777 h 21.52 V 311.25 l 57.14,69.527 h 27.13 l -60.62,-69.808 61.41,-80.141 h -27.64 l -57.42,78.996 v -78.996 h -21.52 v 149.949"
       style="fill:#7b7979;fill-opacity:1;fill-rule:nonzero;stroke:none"
       transform="matrix(0.13333333,0,0,-0.13333333,0,136)" />
    <path
       id="path23"
       d="M 1002.81,241.027 V 419.395 L 512.219,221.551 14.3828,434.746 V 258.441 L 512.219,17.207 1002.81,241.027"
       style="fill:#ed1c24;fill-opacity:1;fill-rule:nonzero;stroke:none"
       transform="matrix(0.13333333,0,0,-0.13333333,0,136)" />
    <path
       id="path24"
       d="m 994.469,246.359 v 160.7 l -479.156,-193.235 -3.192,-1.289 -3.164,1.356 -486.2304,208.23 V 263.648 L 512.336,26.3984 Z m 16.691,173.036 v -183.7 l -4.89,-2.23 L 515.672,9.64453 512.098,8.01563 508.598,9.71094 10.7656,250.949 6.03906,253.238 v 5.203 176.305 12.629 l 11.60544,-4.969 494.6715,-211.843 487.399,196.554 11.445,4.617 v -12.339"
       style="fill:#ed1c24;fill-opacity:1;fill-rule:nonzero;stroke:none"
       transform="matrix(0.13333333,0,0,-0.13333333,0,136)" />
    <path
       id="path25"
       d="M 512.219,510.148 14.1953,684.094 V 510.148 L 512.219,311.816 1000,491.18 V 670.5 L 512.219,510.148"
       style="fill:#ed1c24;fill-opacity:1;fill-rule:nonzero;stroke:none"
       transform="matrix(0.13333333,0,0,-0.13333333,0,136)" />
    <path
       id="path26"
       d="M 510.02,503.836 20.8984,674.672 V 514.668 L 512.289,318.973 993.301,495.844 v 165.41 L 514.285,503.789 512.164,503.09 Z M 16.3945,690.402 512.273,517.207 l 485.661,159.656 8.776,2.883 V 670.5 491.18 486.512 l -4.41,-1.614 -487.777,-179.367 -2.375,-0.871 -2.39,0.949 -498.0236,198.332 -4.24221,1.692 v 4.515 173.946 9.418 l 8.90231,-3.11"
       style="fill:#ed1c24;fill-opacity:1;fill-rule:nonzero;stroke:none"
       transform="matrix(0.13333333,0,0,-0.13333333,0,136)" />
    <path
       id="path27"
       d="M 512.219,805.063 14.1953,938.688 V 759.863 L 512.219,597.855 1000,747.262 V 928.238 L 512.219,805.063"
       style="fill:#ed1c24;fill-opacity:1;fill-rule:nonzero;stroke:none"
       transform="matrix(0.13333333,0,0,-0.13333333,0,136)" />
    <path
       id="path28"
       d="M 510.488,798.598 20.8984,929.961 V 764.719 l 491.4026,-159.856 481,147.328 v 167.45 L 513.84,798.574 512.164,798.148 Z M 15.9219,945.156 512.27,811.98 l 486.109,122.75 8.331,2.102 v -8.594 -180.976 -4.93 l -4.77,-1.457 -487.784,-149.41 -2.023,-0.617 -1.985,0.644 L 12.1289,753.5 7.49219,755.012 v 4.851 178.825 8.73 l 8.42971,-2.262"
       style="fill:#ed1c24;fill-opacity:1;fill-rule:nonzero;stroke:none"
       transform="matrix(0.13333333,0,0,-0.13333333,0,136)" />
    <path
       id="path29"
       d="m 8.02734,948.617 499.79266,70.823 1.164,-0.02 495.046,-80.971 -1.26,-7.715 -494.45,80.876 -499.21844,-70.735 -1.07422,7.742"
       style="fill:#ed1c24;fill-opacity:1;fill-rule:nonzero;stroke:none"
       transform="matrix(0.13333333,0,0,-0.13333333,0,136)" />
  </g>
</svg>
